<svg xmlns="http://www.w3.org/2000/svg" version="1.1" width="1000" height="1000" viewBox="0 0 1000 1000"
     xml:space="preserve">
<desc>Created with Fabric.js 3.5.0</desc>
<defs>
</defs>
<rect x="0" y="0" width="100%" height="100%" fill="rgba(55,72,172,0)"/>
<g transform="matrix(0.4544 0 0 -0.4544 499.9841 499.9804)" id="821631">
<path style="stroke: rgb(0,0,0); stroke-width: 0; stroke-dasharray: none; stroke-linecap: butt; stroke-dashoffset: 0; stroke-linejoin: miter; stroke-miterlimit: 4; is-custom-font: none; font-file-url: none; fill: rgb(255,255,255); fill-rule: nonzero; opacity: 1;" transform=" translate(-1000, -1116.2548)" d="M 520 1412 c 0 -331 8 -392 70 -518 c 76 -156 255 -328 381 -366 c 35 -10 44 -8 101 20 c 181 89 337 285 388 486 c 18 70 20 113 20 378 l 0 298 l -480 0 l -480 0 l 0 -298 z m 468 26 l 2 -248 l -220 0 l -220 0 l 0 250 l 0 250 l 218 -2 l 217 -3 l 3 -247 z m 462 2 l 0 -250 l -220 0 l -220 0 l 0 243 c 0 134 3 247 7 250 c 3 4 102 7 220 7 l 213 0 l 0 -250 z m -460 -586 c 0 -348 10 -319 -90 -261 c -71 41 -215 186 -259 260 c -45 76 -80 176 -88 248 l -6 59 l 222 0 l 221 0 l 0 -306 z m 457 247 c -8 -72 -43 -172 -88 -248 c -43 -73 -188 -218 -259 -260 c -100 -58 -90 -86 -90 261 l 0 306 l 221 0 l 222 0 l -6 -59 z" stroke-linecap="round"/>
</g>
<g transform="matrix(0.4544 0 0 -0.4544 391.2292 350.8417)" id="416580">
<path style="stroke: none; stroke-width: 1; stroke-dasharray: none; stroke-linecap: butt; stroke-dashoffset: 0; stroke-linejoin: miter; stroke-miterlimit: 4; is-custom-font: none; font-file-url: none; fill: rgb(255,255,255); fill-rule: nonzero; opacity: 1;" transform=" translate(-760.1202, -1445)" d="M 650 1445 c 0 -148 1 -155 20 -155 c 18 0 20 7 20 60 l 0 60 l 33 0 c 55 1 111 18 130 41 c 26 32 22 94 -8 124 c -22 23 -32 25 -110 25 l -85 0 l 0 -155 z m 161 115 c 22 -12 27 -78 7 -98 c -7 -7 -38 -12 -70 -12 l -58 0 l 0 60 l 0 60 l 51 0 c 28 0 59 -5 70 -10 z" stroke-linecap="round"/>
</g>
<g transform="matrix(0.4544 0 0 -0.4544 602.7554 340.1654)" id="517605">
<path style="stroke: none; stroke-width: 1; stroke-dasharray: none; stroke-linecap: butt; stroke-dashoffset: 0; stroke-linejoin: miter; stroke-miterlimit: 4; is-custom-font: none; font-file-url: none; fill: rgb(255,255,255); fill-rule: nonzero; opacity: 1;" transform=" translate(-1225.4988, -1468.5)" d="M 1133 1546 c -51 -22 -89 -43 -85 -47 c 4 -3 46 -22 93 -43 l 85 -38 l 72 33 c 74 32 95 33 75 0 c -14 -22 -5 -101 11 -101 c 7 0 11 23 9 67 c -1 38 3 73 8 79 c 7 8 -2 16 -28 27 c -21 8 -63 26 -93 40 l -55 24 l -92 -41 z" stroke-linecap="round"/>
</g>
<g transform="matrix(0.4544 0 0 -0.4544 602.5412 374.6765)" id="213472">
<path style="stroke: none; stroke-width: 1; stroke-dasharray: none; stroke-linecap: butt; stroke-dashoffset: 0; stroke-linejoin: miter; stroke-miterlimit: 4; is-custom-font: none; font-file-url: none; fill: rgb(255,255,255); fill-rule: nonzero; opacity: 1;" transform=" translate(-1225.0042, -1392.5986)" d="M 1120 1421 c 0 -12 9 -21 24 -25 c 14 -3 38 -17 54 -31 c 29 -24 29 -24 47 -5 c 10 11 33 25 51 32 c 22 8 34 19 34 30 c 0 22 2 22 -56 -2 l -48 -21 l -47 21 c -58 25 -59 25 -59 1 z" stroke-linecap="round"/>
</g>
<g transform="matrix(0.4544 0 0 -0.4544 392.4295 561.6188)" id="906893">
<path style="stroke: none; stroke-width: 1; stroke-dasharray: none; stroke-linecap: butt; stroke-dashoffset: 0; stroke-linejoin: miter; stroke-miterlimit: 4; is-custom-font: none; font-file-url: none; fill: rgb(255,255,255); fill-rule: nonzero; opacity: 1;" transform=" translate(-762.7534, -981.3134)" d="M 799 1027 c -54 -50 -140 -144 -120 -132 c 7 4 29 25 49 47 c 19 21 40 37 46 35 c 13 -4 47 29 38 37 c -3 3 5 17 18 31 c 36 38 20 29 -31 -18 z" stroke-linecap="round"/>
</g>
<g transform="matrix(0.4544 0 0 -0.4544 446.6686 538.3607)" id="214855">
<path style="stroke: none; stroke-width: 1; stroke-dasharray: none; stroke-linecap: butt; stroke-dashoffset: 0; stroke-linejoin: miter; stroke-miterlimit: 4; is-custom-font: none; font-file-url: none; fill: rgb(255,255,255); fill-rule: nonzero; opacity: 1;" transform=" translate(-882.0663, -1032.4974)" d="M 884 1063 c 3 -4 -8 -23 -26 -42 c -32 -35 -32 -35 8 2 c 39 36 43 38 54 20 c 11 -17 11 -17 6 0 c -3 10 -6 21 -6 23 c 0 2 -10 4 -22 4 c -12 0 -18 -3 -14 -7 z" stroke-linecap="round"/>
</g>
<g transform="matrix(0.4544 0 0 -0.4544 412.6892 583.3646)" id="308671">
<path style="stroke: none; stroke-width: 1; stroke-dasharray: none; stroke-linecap: butt; stroke-dashoffset: 0; stroke-linejoin: miter; stroke-miterlimit: 4; is-custom-font: none; font-file-url: none; fill: rgb(255,255,255); fill-rule: nonzero; opacity: 1;" transform=" translate(-807.3331, -933.4737)" d="M 890 995 c -13 -14 -29 -24 -35 -22 c -13 4 -42 -26 -38 -39 c 2 -6 -9 -22 -25 -37 c -25 -24 -30 -25 -54 -13 c -22 12 -29 12 -38 1 c -17 -20 15 -42 37 -24 c 15 12 16 12 9 -6 c -5 -14 3 -10 28 14 c 31 30 36 32 36 15 c 0 -14 7 -19 25 -19 c 23 0 25 4 25 45 c 0 36 6 50 32 77 c 18 18 30 33 27 33 c -3 0 -16 -11 -29 -25 z" stroke-linecap="round"/>
</g>
<g transform="matrix(0.4544 0 0 -0.4544 395.2417 585.9285)" id="285699">
<path style="stroke: none; stroke-width: 1; stroke-dasharray: none; stroke-linecap: butt; stroke-dashoffset: 0; stroke-linejoin: miter; stroke-miterlimit: 4; is-custom-font: none; font-file-url: none; fill: rgb(255,255,255); fill-rule: nonzero; opacity: 1;" transform=" translate(-768.9209, -927.8506)" d="M 765 930 c -16 -16 -27 -31 -24 -33 c 2 -2 17 11 32 30 c 36 41 31 43 -8 3 z" stroke-linecap="round"/>
</g>
<g transform="matrix(0.4544 0 0 -0.4544 360.4187 617.6928)" id="548767">
<path style="stroke: none; stroke-width: 1; stroke-dasharray: none; stroke-linecap: butt; stroke-dashoffset: 0; stroke-linejoin: miter; stroke-miterlimit: 4; is-custom-font: none; font-file-url: none; fill: rgb(255,255,255); fill-rule: nonzero; opacity: 1;" transform=" translate(-692.3142, -857.9709)" d="M 679 858 c 14 -16 32 -28 40 -27 c 14 0 14 1 1 6 c -8 3 -26 15 -40 27 l -25 21 l 24 -27 z" stroke-linecap="round"/>
</g>
<g transform="matrix(0.4544 0 0 -0.4544 582.0825 575.302)" id="875763">
<path style="stroke: none; stroke-width: 1; stroke-dasharray: none; stroke-linecap: butt; stroke-dashoffset: 0; stroke-linejoin: miter; stroke-miterlimit: 4; is-custom-font: none; font-file-url: none; fill: rgb(255,255,255); fill-rule: nonzero; opacity: 1;" transform=" translate(-1180, -951.1878)" d="M 1119 1095 c -38 -21 -59 -72 -59 -148 c 0 -71 24 -120 70 -145 c 32 -17 111 -10 144 12 c 23 15 26 23 26 76 l 0 60 l -55 0 c -42 0 -55 -3 -55 -15 c 0 -10 11 -15 35 -15 c 34 0 35 -1 35 -40 c 0 -45 -18 -60 -70 -60 c -22 0 -41 9 -61 29 c -27 27 -29 35 -29 104 c 0 65 3 77 25 101 c 35 38 87 36 117 -4 c 25 -35 59 -41 51 -10 c -3 11 -19 31 -35 45 c -34 29 -96 33 -139 10 z" stroke-linecap="round"/>
</g>
</svg>
