<svg xmlns="http://www.w3.org/2000/svg" version="1.1" width="1000" height="1000" viewBox="0 0 1000 1000"
     xml:space="preserve">
<desc>Created with Fabric.js 3.5.0</desc>
<defs>
</defs>
<rect x="0" y="0" width="100%" height="100%" fill="#ffffff"/>
<g transform="matrix(3.4091 0 0 3.4091 500.0012 500.0012)" id="152325">
<g style="" vector-effect="non-scaling-stroke">
		<g transform="matrix(0.1333 0 0 -0.1333 -0.016 -15.5204)">
<path style="stroke: none; stroke-width: 1; stroke-dasharray: none; stroke-linecap: butt; stroke-dashoffset: 0; stroke-linejoin: miter; stroke-miterlimit: 4; is-custom-font: none; font-file-url: none; fill: rgb(55,72,172); fill-rule: nonzero; opacity: 1;" transform=" translate(-1000, -1116.2548)" d="M 520 1412 c 0 -331 8 -392 70 -518 c 76 -156 255 -328 381 -366 c 35 -10 44 -8 101 20 c 181 89 337 285 388 486 c 18 70 20 113 20 378 l 0 298 l -480 0 l -480 0 l 0 -298 z m 468 26 l 2 -248 l -220 0 l -220 0 l 0 250 l 0 250 l 218 -2 l 217 -3 l 3 -247 z m 462 2 l 0 -250 l -220 0 l -220 0 l 0 243 c 0 134 3 247 7 250 c 3 4 102 7 220 7 l 213 0 l 0 -250 z m -460 -586 c 0 -348 10 -319 -90 -261 c -71 41 -215 186 -259 260 c -45 76 -80 176 -88 248 l -6 59 l 222 0 l 221 0 l 0 -306 z m 457 247 c -8 -72 -43 -172 -88 -248 c -43 -73 -188 -218 -259 -260 c -100 -58 -90 -86 -90 261 l 0 306 l 221 0 l 222 0 l -6 -59 z" stroke-linecap="round"/>
</g>
		<g transform="matrix(0.1333 0 0 -0.1333 -31.9876 -59.3385)">
<path style="stroke: none; stroke-width: 1; stroke-dasharray: none; stroke-linecap: butt; stroke-dashoffset: 0; stroke-linejoin: miter; stroke-miterlimit: 4; is-custom-font: none; font-file-url: none; fill: rgb(55,72,172); fill-rule: nonzero; opacity: 1;" transform=" translate(-760.1202, -1445)" d="M 650 1445 c 0 -148 1 -155 20 -155 c 18 0 20 7 20 60 l 0 60 l 33 0 c 55 1 111 18 130 41 c 26 32 22 94 -8 124 c -22 23 -32 25 -110 25 l -85 0 l 0 -155 z m 161 115 c 22 -12 27 -78 7 -98 c -7 -7 -38 -12 -70 -12 l -58 0 l 0 60 l 0 60 l 51 0 c 28 0 59 -5 70 -10 z" stroke-linecap="round"/>
</g>
		<g transform="matrix(0.1333 0 0 -0.1333 30.0606 -62.4706)">
<path style="stroke: none; stroke-width: 1; stroke-dasharray: none; stroke-linecap: butt; stroke-dashoffset: 0; stroke-linejoin: miter; stroke-miterlimit: 4; is-custom-font: none; font-file-url: none; fill: rgb(55,72,172); fill-rule: nonzero; opacity: 1;" transform=" translate(-1225.4988, -1468.5)" d="M 1133 1546 c -51 -22 -89 -43 -85 -47 c 4 -3 46 -22 93 -43 l 85 -38 l 72 33 c 74 32 95 33 75 0 c -14 -22 -5 -101 11 -101 c 7 0 11 23 9 67 c -1 38 3 73 8 79 c 7 8 -2 16 -28 27 c -21 8 -63 26 -93 40 l -55 24 l -92 -41 z" stroke-linecap="round"/>
</g>
		<g transform="matrix(0.1333 0 0 -0.1333 29.997 -52.3481)">
<path style="stroke: none; stroke-width: 1; stroke-dasharray: none; stroke-linecap: butt; stroke-dashoffset: 0; stroke-linejoin: miter; stroke-miterlimit: 4; is-custom-font: none; font-file-url: none; fill: rgb(55,72,172); fill-rule: nonzero; opacity: 1;" transform=" translate(-1225.0042, -1392.5986)" d="M 1120 1421 c 0 -12 9 -21 24 -25 c 14 -3 38 -17 54 -31 c 29 -24 29 -24 47 -5 c 10 11 33 25 51 32 c 22 8 34 19 34 30 c 0 22 2 22 -56 -2 l -48 -21 l -47 21 c -58 25 -59 25 -59 1 z" stroke-linecap="round"/>
</g>
		<g transform="matrix(0.1333 0 0 -0.1333 -31.6358 2.4886)">
<path style="stroke: none; stroke-width: 1; stroke-dasharray: none; stroke-linecap: butt; stroke-dashoffset: 0; stroke-linejoin: miter; stroke-miterlimit: 4; is-custom-font: none; font-file-url: none; fill: rgb(55,72,172); fill-rule: nonzero; opacity: 1;" transform=" translate(-762.7534, -981.3134)" d="M 799 1027 c -54 -50 -140 -144 -120 -132 c 7 4 29 25 49 47 c 19 21 40 37 46 35 c 13 -4 47 29 38 37 c -3 3 5 17 18 31 c 36 38 20 29 -31 -18 z" stroke-linecap="round"/>
</g>
		<g transform="matrix(0.1333 0 0 -0.1333 -15.7261 -4.3343)">
<path style="stroke: none; stroke-width: 1; stroke-dasharray: none; stroke-linecap: butt; stroke-dashoffset: 0; stroke-linejoin: miter; stroke-miterlimit: 4; is-custom-font: none; font-file-url: none; fill: rgb(55,72,172); fill-rule: nonzero; opacity: 1;" transform=" translate(-882.0663, -1032.4974)" d="M 884 1063 c 3 -4 -8 -23 -26 -42 c -32 -35 -32 -35 8 2 c 39 36 43 38 54 20 c 11 -17 11 -17 6 0 c -3 10 -6 21 -6 23 c 0 2 -10 4 -22 4 c -12 0 -18 -3 -14 -7 z" stroke-linecap="round"/>
</g>
		<g transform="matrix(0.1333 0 0 -0.1333 -25.6927 8.8673)">
<path style="stroke: none; stroke-width: 1; stroke-dasharray: none; stroke-linecap: butt; stroke-dashoffset: 0; stroke-linejoin: miter; stroke-miterlimit: 4; is-custom-font: none; font-file-url: none; fill: rgb(55,72,172); fill-rule: nonzero; opacity: 1;" transform=" translate(-807.3331, -933.4737)" d="M 890 995 c -13 -14 -29 -24 -35 -22 c -13 4 -42 -26 -38 -39 c 2 -6 -9 -22 -25 -37 c -25 -24 -30 -25 -54 -13 c -22 12 -29 12 -38 1 c -17 -20 15 -42 37 -24 c 15 12 16 12 9 -6 c -5 -14 3 -10 28 14 c 31 30 36 32 36 15 c 0 -14 7 -19 25 -19 c 23 0 25 4 25 45 c 0 36 6 50 32 77 c 18 18 30 33 27 33 c -3 0 -16 -11 -29 -25 z" stroke-linecap="round"/>
</g>
		<g transform="matrix(0.1333 0 0 -0.1333 -30.8115 9.6189)">
<path style="stroke: none; stroke-width: 1; stroke-dasharray: none; stroke-linecap: butt; stroke-dashoffset: 0; stroke-linejoin: miter; stroke-miterlimit: 4; is-custom-font: none; font-file-url: none; fill: rgb(55,72,172); fill-rule: nonzero; opacity: 1;" transform=" translate(-768.9209, -927.8506)" d="M 765 930 c -16 -16 -27 -31 -24 -33 c 2 -2 17 11 32 30 c 36 41 31 43 -8 3 z" stroke-linecap="round"/>
</g>
		<g transform="matrix(0.1333 0 0 -0.1333 -41.0261 18.9363)">
<path style="stroke: none; stroke-width: 1; stroke-dasharray: none; stroke-linecap: butt; stroke-dashoffset: 0; stroke-linejoin: miter; stroke-miterlimit: 4; is-custom-font: none; font-file-url: none; fill: rgb(55,72,172); fill-rule: nonzero; opacity: 1;" transform=" translate(-692.3142, -857.9709)" d="M 679 858 c 14 -16 32 -28 40 -27 c 14 0 14 1 1 6 c -8 3 -26 15 -40 27 l -25 21 l 24 -27 z" stroke-linecap="round"/>
</g>
		<g transform="matrix(0.1333 0 0 -0.1333 23.996 6.503)">
<path style="stroke: none; stroke-width: 1; stroke-dasharray: none; stroke-linecap: butt; stroke-dashoffset: 0; stroke-linejoin: miter; stroke-miterlimit: 4; is-custom-font: none; font-file-url: none; fill: rgb(55,72,172); fill-rule: nonzero; opacity: 1;" transform=" translate(-1180, -951.1878)" d="M 1119 1095 c -38 -21 -59 -72 -59 -148 c 0 -71 24 -120 70 -145 c 32 -17 111 -10 144 12 c 23 15 26 23 26 76 l 0 60 l -55 0 c -42 0 -55 -3 -55 -15 c 0 -10 11 -15 35 -15 c 34 0 35 -1 35 -40 c 0 -45 -18 -60 -70 -60 c -22 0 -41 9 -61 29 c -27 27 -29 35 -29 104 c 0 65 3 77 25 101 c 35 38 87 36 117 -4 c 25 -35 59 -41 51 -10 c -3 11 -19 31 -35 45 c -34 29 -96 33 -139 10 z" stroke-linecap="round"/>
</g>
		<g transform="matrix(0.1333 0 0 -0.1333 46.2107 78.0655)">
<path style="stroke: none; stroke-width: 1; stroke-dasharray: none; stroke-linecap: butt; stroke-dashoffset: 0; stroke-linejoin: miter; stroke-miterlimit: 4; is-custom-font: none; font-file-url: none; fill: rgb(55,72,172); fill-rule: nonzero; opacity: 1;" transform=" translate(-1346.5865, -414.5047)" d="M 1330 415 c -9 -10 -9 -15 -1 -15 c 6 0 11 5 11 11 c 0 8 6 7 18 -2 c 15 -13 16 -12 3 4 c -16 21 -16 21 -31 2 z" stroke-linecap="round"/>
</g>
		<g transform="matrix(0.1333 0 0 -0.1333 -94.6684 85.5538)">
<path style="stroke: none; stroke-width: 1; stroke-dasharray: none; stroke-linecap: butt; stroke-dashoffset: 0; stroke-linejoin: miter; stroke-miterlimit: 4; is-custom-font: none; font-file-url: none; fill: rgb(55,72,172); fill-rule: nonzero; opacity: 1;" transform=" translate(-290, -358.3312)" d="M 241 348 c 1 -40 4 -61 6 -47 c 3 21 11 28 35 33 c 36 7 58 23 58 42 c 0 23 -31 44 -66 44 l -34 0 l 1 -72 z m 67 53 c 25 -16 9 -46 -26 -49 c -28 -3 -32 0 -32 21 c 0 13 3 27 7 30 c 9 10 35 8 51 -2 z" stroke-linecap="round"/>
</g>
		<g transform="matrix(0.1333 0 0 -0.1333 29.9562 86.6902)">
<path style="stroke: none; stroke-width: 1; stroke-dasharray: none; stroke-linecap: butt; stroke-dashoffset: 0; stroke-linejoin: miter; stroke-miterlimit: 4; is-custom-font: none; font-file-url: none; fill: rgb(55,72,172); fill-rule: nonzero; opacity: 1;" transform=" translate(-1224.6845, -349.8061)" d="M 1186 398 c -34 -48 -8 -118 43 -118 c 33 0 54 21 49 47 c -3 19 -48 32 -48 14 c 0 -6 7 -11 16 -11 c 23 0 13 -34 -12 -38 c -29 -4 -46 21 -42 64 c 4 48 29 65 57 40 c 22 -20 30 -9 9 12 c -19 19 -55 14 -72 -10 z" stroke-linecap="round"/>
</g>
		<g transform="matrix(0.1333 0 0 -0.1333 -80.0545 89.3429)">
<path style="stroke: none; stroke-width: 1; stroke-dasharray: none; stroke-linecap: butt; stroke-dashoffset: 0; stroke-linejoin: miter; stroke-miterlimit: 4; is-custom-font: none; font-file-url: none; fill: rgb(55,72,172); fill-rule: nonzero; opacity: 1;" transform=" translate(-399.6014, -329.9156)" d="M 372 368 c -7 -7 -12 -24 -12 -38 c 0 -14 5 -31 12 -38 c 15 -15 55 -16 64 -1 c 4 8 -1 9 -15 4 c -22 -7 -51 9 -51 26 c 0 5 16 9 35 9 c 35 0 40 5 29 34 c -7 19 -45 21 -62 4 z m 56 -15 c 2 -9 -7 -13 -27 -13 c -23 0 -29 4 -24 16 c 6 17 44 15 51 -3 z" stroke-linecap="round"/>
</g>
		<g transform="matrix(0.1333 0 0 -0.1333 -65.8704 91.9976)">
<path style="stroke: none; stroke-width: 1; stroke-dasharray: none; stroke-linecap: butt; stroke-dashoffset: 0; stroke-linejoin: miter; stroke-miterlimit: 4; is-custom-font: none; font-file-url: none; fill: rgb(55,72,172); fill-rule: nonzero; opacity: 1;" transform=" translate(-505.9827, -310)" d="M 468 355 c -17 -38 4 -79 37 -72 c 21 3 25 0 25 -19 c 0 -13 5 -24 10 -24 c 6 0 10 30 10 70 l 0 70 l -35 0 c -28 0 -38 -5 -47 -25 z m 60 -22 c -2 -30 -7 -38 -23 -38 c -13 0 -21 8 -23 23 c -5 34 5 52 28 52 c 18 0 21 -5 18 -37 z" stroke-linecap="round"/>
</g>
		<g transform="matrix(0.1333 0 0 -0.1333 -50.4274 89.3983)">
<path style="stroke: none; stroke-width: 1; stroke-dasharray: none; stroke-linecap: butt; stroke-dashoffset: 0; stroke-linejoin: miter; stroke-miterlimit: 4; is-custom-font: none; font-file-url: none; fill: rgb(55,72,172); fill-rule: nonzero; opacity: 1;" transform=" translate(-621.8038, -329.5)" d="M 584 335 l 1 -50 l 38 -3 l 37 -3 l 0 50 c 0 28 -4 51 -10 51 c -5 0 -10 -20 -10 -45 c 0 -38 -3 -45 -20 -45 c -19 0 -23 8 -34 70 c -2 14 -3 3 -2 -25 z" stroke-linecap="round"/>
</g>
		<g transform="matrix(0.1333 0 0 -0.1333 -36.0045 89.3524)">
<path style="stroke: none; stroke-width: 1; stroke-dasharray: none; stroke-linecap: butt; stroke-dashoffset: 0; stroke-linejoin: miter; stroke-miterlimit: 4; is-custom-font: none; font-file-url: none; fill: rgb(55,72,172); fill-rule: nonzero; opacity: 1;" transform=" translate(-729.9764, -329.8448)" d="M 702 368 c -15 -15 -15 -61 0 -76 c 15 -15 55 -16 63 -2 c 4 7 -3 8 -20 4 c -18 -4 -30 -2 -36 7 c -15 24 -10 29 26 29 c 35 0 40 5 29 34 c -7 19 -45 21 -62 4 z m 52 -13 c 4 -11 -2 -15 -24 -15 c -29 0 -38 9 -23 23 c 12 12 41 7 47 -8 z" stroke-linecap="round"/>
</g>
		<g transform="matrix(0.1333 0 0 -0.1333 -21.3346 89.7741)">
<path style="stroke: none; stroke-width: 1; stroke-dasharray: none; stroke-linecap: butt; stroke-dashoffset: 0; stroke-linejoin: miter; stroke-miterlimit: 4; is-custom-font: none; font-file-url: none; fill: rgb(55,72,172); fill-rule: nonzero; opacity: 1;" transform=" translate(-840, -326.6808)" d="M 802 325 l 1 -50 l 6 45 c 5 36 10 45 26 45 c 16 0 21 -8 23 -42 c 3 -47 22 -60 22 -15 c 0 58 -10 73 -46 70 l -34 -2 l 2 -51 z" stroke-linecap="round"/>
</g>
		<g transform="matrix(0.1333 0 0 -0.1333 -7.2143 89.4043)">
<path style="stroke: none; stroke-width: 1; stroke-dasharray: none; stroke-linecap: butt; stroke-dashoffset: 0; stroke-linejoin: miter; stroke-miterlimit: 4; is-custom-font: none; font-file-url: none; fill: rgb(55,72,172); fill-rule: nonzero; opacity: 1;" transform=" translate(-945.9043, -329.4547)" d="M 908 355 c -23 -51 32 -101 70 -63 c 15 15 15 61 0 76 c -21 21 -57 14 -70 -13 z m 68 -11 c 8 -30 -16 -60 -40 -51 c -16 6 -23 57 -9 70 c 16 16 43 6 49 -19 z" stroke-linecap="round"/>
</g>
		<g transform="matrix(0.1333 0 0 -0.1333 7.2783 89.1396)">
<path style="stroke: none; stroke-width: 1; stroke-dasharray: none; stroke-linecap: butt; stroke-dashoffset: 0; stroke-linejoin: miter; stroke-miterlimit: 4; is-custom-font: none; font-file-url: none; fill: rgb(55,72,172); fill-rule: nonzero; opacity: 1;" transform=" translate(-1054.596, -331.4408)" d="M 1027 374 c -15 -16 -5 -36 23 -45 c 17 -6 30 -17 30 -25 c 0 -17 -31 -18 -49 -1 c -11 10 -13 9 -9 -3 c 7 -24 62 -20 66 5 c 2 15 -6 24 -30 33 c -25 9 -30 14 -20 24 c 10 10 17 10 33 -1 c 18 -10 20 -10 17 1 c -5 14 -50 23 -61 12 z" stroke-linecap="round"/>
</g>
		<g transform="matrix(0.1333 0 0 -0.1333 46.266 89.2926)">
<path style="stroke: none; stroke-width: 1; stroke-dasharray: none; stroke-linecap: butt; stroke-dashoffset: 0; stroke-linejoin: miter; stroke-miterlimit: 4; is-custom-font: none; font-file-url: none; fill: rgb(55,72,172); fill-rule: nonzero; opacity: 1;" transform=" translate(-1347.006, -330.2924)" d="M 1309 353 c -15 -41 3 -73 41 -73 c 16 0 30 4 30 8 c 0 4 -12 8 -27 7 c -18 0 -29 6 -31 18 c -3 14 4 17 32 17 c 37 0 47 15 24 38 c -22 22 -58 14 -69 -15 z m 59 0 c 2 -8 -6 -13 -22 -13 c -25 0 -33 10 -19 24 c 10 10 36 3 41 -11 z" stroke-linecap="round"/>
</g>
		<g transform="matrix(0.1333 0 0 -0.1333 59.8653 89.7983)">
<path style="stroke: none; stroke-width: 1; stroke-dasharray: none; stroke-linecap: butt; stroke-dashoffset: 0; stroke-linejoin: miter; stroke-miterlimit: 4; is-custom-font: none; font-file-url: none; fill: rgb(55,72,172); fill-rule: nonzero; opacity: 1;" transform=" translate(-1449, -326.5)" d="M 1410 329 c 0 -60 18 -65 22 -6 c 2 34 7 42 23 42 c 16 0 21 -9 26 -45 l 7 -45 l -2 50 l -1 50 l -37 2 l -38 1 l 0 -49 z" stroke-linecap="round"/>
</g>
		<g transform="matrix(0.1333 0 0 -0.1333 70.6663 89.3316)">
<path style="stroke: none; stroke-width: 1; stroke-dasharray: none; stroke-linecap: butt; stroke-dashoffset: 0; stroke-linejoin: miter; stroke-miterlimit: 4; is-custom-font: none; font-file-url: none; fill: rgb(55,72,172); fill-rule: nonzero; opacity: 1;" transform=" translate(-1530, -330)" d="M 1520 330 c 0 -27 5 -50 10 -50 c 6 0 10 23 10 50 c 0 28 -4 50 -10 50 c -5 0 -10 -22 -10 -50 z" stroke-linecap="round"/>
</g>
		<g transform="matrix(0.1333 0 0 -0.1333 81.8279 89.3114)">
<path style="stroke: none; stroke-width: 1; stroke-dasharray: none; stroke-linecap: butt; stroke-dashoffset: 0; stroke-linejoin: miter; stroke-miterlimit: 4; is-custom-font: none; font-file-url: none; fill: rgb(55,72,172); fill-rule: nonzero; opacity: 1;" transform=" translate(-1613.7207, -330.1519)" d="M 1582 368 c -7 -7 -12 -24 -12 -38 c 0 -52 61 -71 82 -25 c 23 51 -32 101 -70 63 z m 56 -36 c 2 -22 -2 -34 -12 -38 c -34 -13 -61 37 -34 64 c 21 21 43 9 46 -26 z" stroke-linecap="round"/>
</g>
		<g transform="matrix(0.1333 0 0 -0.1333 96.2238 89.2527)">
<path style="stroke: none; stroke-width: 1; stroke-dasharray: none; stroke-linecap: butt; stroke-dashoffset: 0; stroke-linejoin: miter; stroke-miterlimit: 4; is-custom-font: none; font-file-url: none; fill: rgb(55,72,172); fill-rule: nonzero; opacity: 1;" transform=" translate(-1721.6887, -330.5924)" d="M 1697 374 c -14 -15 -6 -33 20 -46 c 33 -16 36 -32 6 -36 c -13 -2 -23 1 -23 7 c 0 6 -5 11 -11 11 c -8 0 -7 -5 1 -16 c 18 -20 64 -14 68 9 c 3 13 -6 22 -27 30 c -17 6 -31 17 -31 24 c 0 17 32 17 49 1 c 11 -11 13 -10 9 2 c -5 16 -49 26 -61 14 z" stroke-linecap="round"/>
</g>
</g>
</g>
</svg>
