<?xml version="1.0" standalone="no"?>
<!DOCTYPE svg PUBLIC "-//W3C//DTD SVG 20010904//EN"
 "http://www.w3.org/TR/2001/REC-SVG-20010904/DTD/svg10.dtd">
<svg version="1.0" xmlns="http://www.w3.org/2000/svg"
 width="200.000000pt" height="200.000000pt" viewBox="0 0 200.000000 200.000000"
 preserveAspectRatio="xMidYMid meet">

<g transform="translate(0.000000,200.000000) scale(0.100000,-0.100000)"
fill="#000000" stroke="none">
<path d="M520 1412 c0 -331 8 -392 70 -518 76 -156 255 -328 381 -366 35 -10
44 -8 101 20 181 89 337 285 388 486 18 70 20 113 20 378 l0 298 -480 0 -480
0 0 -298z m468 26 l2 -248 -220 0 -220 0 0 250 0 250 218 -2 217 -3 3 -247z
m462 2 l0 -250 -220 0 -220 0 0 243 c0 134 3 247 7 250 3 4 102 7 220 7 l213
0 0 -250z m-460 -586 c0 -348 10 -319 -90 -261 -71 41 -215 186 -259 260 -45
76 -80 176 -88 248 l-6 59 222 0 221 0 0 -306z m457 247 c-8 -72 -43 -172 -88
-248 -43 -73 -188 -218 -259 -260 -100 -58 -90 -86 -90 261 l0 306 221 0 222
0 -6 -59z"/>
<path d="M650 1445 c0 -148 1 -155 20 -155 18 0 20 7 20 60 l0 60 33 0 c55 1
111 18 130 41 26 32 22 94 -8 124 -22 23 -32 25 -110 25 l-85 0 0 -155z m161
115 c22 -12 27 -78 7 -98 -7 -7 -38 -12 -70 -12 l-58 0 0 60 0 60 51 0 c28 0
59 -5 70 -10z"/>
<path d="M1133 1546 c-51 -22 -89 -43 -85 -47 4 -3 46 -22 93 -43 l85 -38 72
33 c74 32 95 33 75 0 -14 -22 -5 -101 11 -101 7 0 11 23 9 67 -1 38 3 73 8 79
7 8 -2 16 -28 27 -21 8 -63 26 -93 40 l-55 24 -92 -41z"/>
<path d="M1120 1421 c0 -12 9 -21 24 -25 14 -3 38 -17 54 -31 29 -24 29 -24
47 -5 10 11 33 25 51 32 22 8 34 19 34 30 0 22 2 22 -56 -2 l-48 -21 -47 21
c-58 25 -59 25 -59 1z"/>
<path d="M799 1027 c-54 -50 -140 -144 -120 -132 7 4 29 25 49 47 19 21 40 37
46 35 13 -4 47 29 38 37 -3 3 5 17 18 31 36 38 20 29 -31 -18z"/>
<path d="M884 1063 c3 -4 -8 -23 -26 -42 -32 -35 -32 -35 8 2 39 36 43 38 54
20 11 -17 11 -17 6 0 -3 10 -6 21 -6 23 0 2 -10 4 -22 4 -12 0 -18 -3 -14 -7z"/>
<path d="M890 995 c-13 -14 -29 -24 -35 -22 -13 4 -42 -26 -38 -39 2 -6 -9
-22 -25 -37 -25 -24 -30 -25 -54 -13 -22 12 -29 12 -38 1 -17 -20 15 -42 37
-24 15 12 16 12 9 -6 -5 -14 3 -10 28 14 31 30 36 32 36 15 0 -14 7 -19 25
-19 23 0 25 4 25 45 0 36 6 50 32 77 18 18 30 33 27 33 -3 0 -16 -11 -29 -25z"/>
<path d="M765 930 c-16 -16 -27 -31 -24 -33 2 -2 17 11 32 30 36 41 31 43 -8
3z"/>
<path d="M679 858 c14 -16 32 -28 40 -27 14 0 14 1 1 6 -8 3 -26 15 -40 27
l-25 21 24 -27z"/>
<path d="M1119 1095 c-38 -21 -59 -72 -59 -148 0 -71 24 -120 70 -145 32 -17
111 -10 144 12 23 15 26 23 26 76 l0 60 -55 0 c-42 0 -55 -3 -55 -15 0 -10 11
-15 35 -15 34 0 35 -1 35 -40 0 -45 -18 -60 -70 -60 -22 0 -41 9 -61 29 -27
27 -29 35 -29 104 0 65 3 77 25 101 35 38 87 36 117 -4 25 -35 59 -41 51 -10
-3 11 -19 31 -35 45 -34 29 -96 33 -139 10z"/>
<path d="M1330 415 c-9 -10 -9 -15 -1 -15 6 0 11 5 11 11 0 8 6 7 18 -2 15
-13 16 -12 3 4 -16 21 -16 21 -31 2z"/>
<path d="M241 348 c1 -40 4 -61 6 -47 3 21 11 28 35 33 36 7 58 23 58 42 0 23
-31 44 -66 44 l-34 0 1 -72z m67 53 c25 -16 9 -46 -26 -49 -28 -3 -32 0 -32
21 0 13 3 27 7 30 9 10 35 8 51 -2z"/>
<path d="M1186 398 c-34 -48 -8 -118 43 -118 33 0 54 21 49 47 -3 19 -48 32
-48 14 0 -6 7 -11 16 -11 23 0 13 -34 -12 -38 -29 -4 -46 21 -42 64 4 48 29
65 57 40 22 -20 30 -9 9 12 -19 19 -55 14 -72 -10z"/>
<path d="M372 368 c-7 -7 -12 -24 -12 -38 0 -14 5 -31 12 -38 15 -15 55 -16
64 -1 4 8 -1 9 -15 4 -22 -7 -51 9 -51 26 0 5 16 9 35 9 35 0 40 5 29 34 -7
19 -45 21 -62 4z m56 -15 c2 -9 -7 -13 -27 -13 -23 0 -29 4 -24 16 6 17 44 15
51 -3z"/>
<path d="M468 355 c-17 -38 4 -79 37 -72 21 3 25 0 25 -19 0 -13 5 -24 10 -24
6 0 10 30 10 70 l0 70 -35 0 c-28 0 -38 -5 -47 -25z m60 -22 c-2 -30 -7 -38
-23 -38 -13 0 -21 8 -23 23 -5 34 5 52 28 52 18 0 21 -5 18 -37z"/>
<path d="M584 335 l1 -50 38 -3 37 -3 0 50 c0 28 -4 51 -10 51 -5 0 -10 -20
-10 -45 0 -38 -3 -45 -20 -45 -19 0 -23 8 -34 70 -2 14 -3 3 -2 -25z"/>
<path d="M702 368 c-15 -15 -15 -61 0 -76 15 -15 55 -16 63 -2 4 7 -3 8 -20 4
-18 -4 -30 -2 -36 7 -15 24 -10 29 26 29 35 0 40 5 29 34 -7 19 -45 21 -62 4z
m52 -13 c4 -11 -2 -15 -24 -15 -29 0 -38 9 -23 23 12 12 41 7 47 -8z"/>
<path d="M802 325 l1 -50 6 45 c5 36 10 45 26 45 16 0 21 -8 23 -42 3 -47 22
-60 22 -15 0 58 -10 73 -46 70 l-34 -2 2 -51z"/>
<path d="M908 355 c-23 -51 32 -101 70 -63 15 15 15 61 0 76 -21 21 -57 14
-70 -13z m68 -11 c8 -30 -16 -60 -40 -51 -16 6 -23 57 -9 70 16 16 43 6 49
-19z"/>
<path d="M1027 374 c-15 -16 -5 -36 23 -45 17 -6 30 -17 30 -25 0 -17 -31 -18
-49 -1 -11 10 -13 9 -9 -3 7 -24 62 -20 66 5 2 15 -6 24 -30 33 -25 9 -30 14
-20 24 10 10 17 10 33 -1 18 -10 20 -10 17 1 -5 14 -50 23 -61 12z"/>
<path d="M1309 353 c-15 -41 3 -73 41 -73 16 0 30 4 30 8 0 4 -12 8 -27 7 -18
0 -29 6 -31 18 -3 14 4 17 32 17 37 0 47 15 24 38 -22 22 -58 14 -69 -15z m59
0 c2 -8 -6 -13 -22 -13 -25 0 -33 10 -19 24 10 10 36 3 41 -11z"/>
<path d="M1410 329 c0 -60 18 -65 22 -6 2 34 7 42 23 42 16 0 21 -9 26 -45 l7
-45 -2 50 -1 50 -37 2 -38 1 0 -49z"/>
<path d="M1520 330 c0 -27 5 -50 10 -50 6 0 10 23 10 50 0 28 -4 50 -10 50 -5
0 -10 -22 -10 -50z"/>
<path d="M1582 368 c-7 -7 -12 -24 -12 -38 0 -52 61 -71 82 -25 23 51 -32 101
-70 63z m56 -36 c2 -22 -2 -34 -12 -38 -34 -13 -61 37 -34 64 21 21 43 9 46
-26z"/>
<path d="M1697 374 c-14 -15 -6 -33 20 -46 33 -16 36 -32 6 -36 -13 -2 -23 1
-23 7 0 6 -5 11 -11 11 -8 0 -7 -5 1 -16 18 -20 64 -14 68 9 3 13 -6 22 -27
30 -17 6 -31 17 -31 24 0 17 32 17 49 1 11 -11 13 -10 9 2 -5 16 -49 26 -61
14z"/>
</g>
</svg>
